<?xml version="1.0" encoding="UTF-8"?>
<svg id="Layer_1" data-name="Layer 1" xmlns="http://www.w3.org/2000/svg" viewBox="0 0 1320 700">
  <defs>
    <style>
      .cls-1, .cls-2 {
        fill: #fff;
      }

      .cls-3 {
        fill: #030404;
      }

      .cls-2 {
        stroke: #fff;
        stroke-miterlimit: 10;
        stroke-width: .5px;
      }
    </style>
  </defs>
  <polygon class="cls-2" points="1297.81 577.04 660 677.59 660 22.41 1297.81 122.96 1297.81 577.04"/>
  <path class="cls-3" d="m660,0L0,104.05v491.89l660,104.05,660-104.05V104.05L660,0Zm637.81,577.04l-637.81,100.55V22.41l637.81,100.56v454.07Z"/>
  <g>
    <path class="cls-3" d="m803.31,621.04c-10.94,1.75-19.92,1.61-26.89-.45-7-2.08-12.73-4.95-17.16-8.62-4.45-3.69-8.23-6.93-11.27-9.71-3.1-2.77-6.19-3.95-9.29-3.51-5.75.81-8.65,8.65-8.65,23.48l-23.49,3.62v-125.45l26.02-2.19c.25,6.75,1.52,14.55,3.79,23.42,2.29,8.85,5.39,17.77,9.29,26.76,3.91,8.96,8.68,17.12,14.29,24.49,5.6,7.32,12.06,12.94,19.4,16.87,7.27,3.9,15.27,5.2,23.96,3.95,10.13-1.46,17.95-5.3,23.47-11.5,5.48-6.15,9.26-14.38,11.4-24.68,2.13-10.28,3.19-22.23,3.19-35.9,0-16.1-2.82-31.97-8.47-47.67-5.69-15.82-13.45-31.99-23.3-48.61-9.97-16.8-21.41-34.17-34.38-52.11-17.83-25.65-31.74-49.31-41.56-70.76-9.91-21.68-16.74-42.08-20.42-61.07-3.7-19.04-5.56-37.45-5.56-55.11,0-26.36,4.08-48.16,12.19-65.26,8.01-16.96,18.61-29.15,31.67-36.63,12.85-7.36,26.55-9.82,41.05-7.5,12.72,2.04,22.13,5.84,28.34,11.39,6.16,5.51,10.91,10.78,14.22,15.81,3.3,5.02,6.54,7.74,9.72,8.19,2.74.39,4.72-.71,5.99-3.32,1.26-2.61,2-7.4,2.2-14.39l19.53,3.03v113.09l-21.73-1.86c-.42-8.77-1.82-18.79-4.25-30.1-2.42-11.32-5.86-22.32-10.33-33-4.49-10.74-10.25-19.97-17.29-27.72-7.12-7.82-15.45-12.43-25.04-13.81-12.65-1.82-22.56,1.96-29.6,11.43-7.13,9.55-10.69,23.99-10.69,43.25,0,13.88,2.15,28.27,6.49,43.14,4.31,14.79,11.18,30.95,20.59,48.41,9.28,17.26,21.25,36.75,35.79,58.34,13.86,19.49,25.7,38.85,35.59,58.13,9.78,19.05,17.25,38.38,22.45,58.03,5.18,19.54,7.74,39.97,7.74,61.39s-1.97,41.2-5.92,57.27c-3.97,16.15-9.46,29.54-16.46,40.14-7.08,10.71-15.39,19.13-24.94,25.24-9.67,6.19-20.22,10.22-31.67,12.06Z"/>
    <path class="cls-3" d="m1006.79,586.8c-17.56,2.79-33.1-4.67-46.5-22.67-13.62-18.32-24.29-45.71-31.87-82.22-7.65-36.87-11.5-81.05-11.5-132.26s3.85-95.86,11.5-132.96c7.58-36.73,18.25-64.29,31.87-82.71,13.4-18.09,28.94-25.59,46.5-22.78,17.3,2.77,32.01,14.69,44.23,35.53,12.02,20.5,21.18,48.06,27.6,82.72,6.35,34.35,9.51,74.34,9.51,120.22s-3.16,85.45-9.51,119.59c-6.42,34.44-15.58,61.84-27.6,82.21-12.23,20.72-26.93,32.57-44.23,35.32Zm0-23.06c6.32-.91,11.75-6.59,16.31-17,4.51-10.34,8.22-24.85,11.12-43.52,2.89-18.58,5.04-40.8,6.44-66.65,1.39-25.81,2.08-54.77,2.08-86.91s-.69-61.16-2.08-87.07c-1.4-25.97-3.55-48.29-6.44-66.99-2.9-18.77-6.6-33.44-11.12-44.01-4.56-10.63-9.98-16.43-16.31-17.35-6.21-.9-11.66,3.41-16.28,12.96-4.66,9.61-8.46,23.81-11.4,42.58-2.95,18.85-5.14,41.76-6.58,68.72-1.44,27.01-2.17,57.4-2.17,91.14s.72,64.07,2.17,90.97c1.44,26.84,3.63,49.65,6.58,68.38,2.94,18.67,6.74,32.69,11.4,42.09,4.63,9.34,10.07,13.53,16.28,12.64Z"/>
    <path class="cls-3" d="m1241.23,548.12c-9.21,1.45-16.09-1.07-20.54-7.61-4.49-6.59-7.38-16.01-8.66-28.25-1.28-12.25-1.92-26.25-1.92-41.99,0-9.66.12-19.3.39-28.89.24-9.59.38-18.08.38-25.47,0-17.24-.81-30.3-2.4-39.18-1.61-8.9-4.62-15-9.03-18.3-4.44-3.32-10.96-4.99-19.62-4.97l-10.55.03v180.46l19.94-2.77v20.24l-80.01,12.34v-21.48l22.42-3.11V158.96l-22.42-3.14v-21.47l83.17,12.92c10.7,1.66,20.19,6.31,28.48,13.87,8.2,7.48,14.57,18.14,19.17,32.01,4.56,13.76,6.84,31.2,6.84,52.38,0,15.84-1.34,29.62-4.01,41.38-2.68,11.8-6.26,21.65-10.76,29.51-4.54,7.93-9.61,14.02-15.21,18.27-5.67,4.29-11.42,7-17.25,8.11,12.5.64,21.91,4.2,28.36,10.67,6.38,6.4,10.74,15.86,13.12,28.41,2.37,12.5,3.55,28.51,3.55,48.07,0,9.41-.15,18.97-.45,28.68-.3,9.73-.45,18.93-.45,27.6,0,5.55.15,11.44.45,17.68.3,6.24.92,11.51,1.82,15.81.91,4.3,2.2,6.33,3.89,6.09,1.19-.17,2.19-1.27,2.97-3.31.78-2.03,1.16-4.24,1.16-6.62l11.54-1.54c-.47,6.78-1.76,12.55-3.89,17.31-2.12,4.78-4.91,8.53-8.37,11.26-3.48,2.74-7.52,4.49-12.13,5.22Zm-71.95-215.47l13.97.18c7.02.09,12.71-3.91,17.09-11.96,4.34-7.99,7.57-18.73,9.68-32.21,2.11-13.43,3.16-28.37,3.16-44.82,0-15.51-.89-28.79-2.67-39.89-1.8-11.11-4.72-19.89-8.8-26.33-4.1-6.48-9.78-10.24-17.05-11.26l-15.37-2.15v168.44Z"/>
  </g>
  <g>
    <path class="cls-1" d="m32.17,549.7v-19.95l12.34,1.64V168.96l-12.34,1.64v-19.95l45.99-6.81c9.14-1.35,17.66,4.99,25.57,19.18,8,14.35,14.47,36.71,19.4,67.12,4.94,30.62,7.45,69.57,7.45,116.66s-2.53,87.24-7.52,118.99c-4.98,31.53-11.47,54.91-19.47,70.17-7.91,15.07-16.38,21.88-25.43,20.54l-45.99-6.81Zm37.38-14.97l5.91.79c4.73.63,9.24-5.54,13.57-18.55,4.33-13.09,7.86-33.66,10.59-61.75,2.74-28.18,4.11-64.31,4.11-108.35,0-39.21-1.27-72.61-3.82-100.12-2.52-27.42-5.72-48.13-9.58-62.19-3.84-13.98-7.85-20.66-12.02-20.1l-8.75,1.17v369.11Z"/>
    <path class="cls-1" d="m254.31,588.23c-8.95-1.36-15.47-6.57-19.65-15.6-4.13-8.98-6.77-20.68-7.93-35.06-1.16-14.38-1.75-30.57-1.75-48.6,0-11.08.11-22.08.34-33.04.25-10.96.37-20.67.37-29.15,0-19.76-.73-34.8-2.17-45.03-1.44-10.22-4.13-17.23-8.01-21.03-3.86-3.79-9.47-5.7-16.76-5.72l-8.65-.03v195.83l16.57,2.21v22.53l-61.73-9.14v-21.62l16.08,2.14V153.43l-16.08,2.14v-21.62l64.43-9.54c9.35-1.38,17.85,1,25.47,7.2,7.73,6.29,13.84,17.03,18.31,32.28,4.52,15.3,6.79,35.77,6.79,61.32,0,19.12-1.36,35.9-4,50.36-2.64,14.38-6.14,26.4-10.47,35.99-4.33,9.54-9.07,16.84-14.3,21.94-5.16,5.04-10.31,8.23-15.49,9.55,11.18.61,19.83,4.66,25.89,12.23,6.11,7.61,10.33,18.97,12.67,34.06,2.35,15.16,3.52,34.48,3.52,57.98,0,11.32-.15,22.79-.47,34.4-.29,11.61-.44,22.64-.44,33.06,0,6.66.15,13.76.44,21.32.32,7.59.91,14.08,1.83,19.54.91,5.46,2.21,8.3,3.9,8.52,1.22.16,2.23-.87,3-3.1.8-2.24,1.19-4.8,1.19-7.71l12.01,1.54c-.51,8.25-1.87,14.98-4.07,20.17-2.22,5.18-5.13,8.83-8.65,10.98-3.53,2.16-7.58,2.88-12.17,2.18Zm-64.22-255.9l11.49-.14c5.99-.07,10.89-4.71,14.7-13.94,3.83-9.28,6.73-21.72,8.61-37.32,1.92-15.62,2.86-32.93,2.86-51.85,0-17.85-.79-32.94-2.43-45.29-1.61-12.3-4.22-21.58-7.84-27.84-3.6-6.23-8.5-8.92-14.73-8.09l-12.67,1.69v182.77Z"/>
    <path class="cls-1" d="m352.69,604.9c-13.59-2.08-25.2-14.08-34.87-35.88-9.56-21.54-16.83-50.92-21.91-88.14-5.05-36.99-7.56-80.28-7.56-130.03s2.51-93.48,7.56-130.69c5.08-37.47,12.35-67.01,21.91-88.66,9.67-21.91,21.28-34,34.87-36.08,13.92-2.12,26.22,6.64,36.77,26.49,10.68,20.1,19.05,49.65,25.01,88.69,6,39.29,9.02,86.13,9.02,140.31s-3.02,100.54-9.02,139.59c-5.96,38.78-14.33,68.14-25.01,88.12-10.55,19.73-22.85,28.41-36.77,26.28Zm0-24.69c5.01.69,9.39-4.02,13.11-14.2,3.71-10.2,6.82-25.3,9.23-45.28,2.45-20.03,4.26-44.38,5.46-72.98,1.2-28.65,1.78-60.94,1.78-96.86s-.58-68.27-1.78-97.03c-1.2-28.72-3-53.18-5.46-73.34-2.41-20.13-5.52-35.38-9.23-45.84-3.72-10.41-8.1-15.23-13.11-14.54-4.88.67-9.08,6.62-12.61,17.84-3.55,11.17-6.4,26.79-8.59,46.91-2.16,20.03-3.77,44.05-4.82,72.02-1.06,27.94-1.57,59.25-1.57,93.95s.51,65.96,1.57,93.78c1.06,27.86,2.67,51.76,4.82,71.69,2.2,19.98,5.05,35.46,8.59,46.38,3.53,10.99,7.73,16.82,12.61,17.5Z"/>
    <path class="cls-1" d="m443.12,610.54v-26.03l24.54,3.27V112.58l-24.54,3.27v-26.03l93.3-13.81c7.86-1.16,16.13.12,24.76,3.86,8.71,3.81,16.86,11.06,24.48,21.8,7.73,10.85,14.03,26.05,18.97,45.67,4.92,19.69,7.44,44.53,7.44,74.43s-2.56,57.76-7.57,81.11c-5.03,23.2-11.46,42.4-19.23,57.56-7.7,15.04-15.93,26.22-24.6,33.58-8.63,7.32-16.72,10.81-24.25,10.59l-26.18-.77v189.62l26.42,3.52v27.42l-93.55-13.85Zm67.13-234.11l15.19.22c6.47.09,12.54-5.69,18.15-17.43,5.65-11.82,10.21-29,13.62-51.64,3.38-22.68,5.1-50.21,5.1-82.5s-1.55-55.06-4.73-73c-3.17-17.85-7.36-30.44-12.6-37.8-5.21-7.32-11.09-10.53-17.53-9.67l-17.21,2.29v269.53Z"/>
  </g>
</svg>